<svg width="1200" height="720" viewBox="0 0 1200 720" fill="none" xmlns="http://www.w3.org/2000/svg">
  <rect width="1200" height="720" fill="#040404"/>
  <path d="M0 417C67 404 133 278 200 278C267 278 333 513 400 513C467 513 533 216 600 216C667 216 733 480 800 480C867 480 933 345 1000 345C1067 345 1133 429 1200 429" stroke="#F5F5F5" stroke-width="8">
    <animate attributeName="d" dur="14s" repeatCount="indefinite" calcMode="spline" keyTimes="0;0.5;1" keySplines="0.42 0 0.58 1;0.42 0 0.58 1" values="M0 417C67 404 133 278 200 278C267 278 333 513 400 513C467 513 533 216 600 216C667 216 733 480 800 480C867 480 933 345 1000 345C1067 345 1133 429 1200 429;M0 422C67 408 133 292 200 286C267 279 333 500 400 504C467 512 533 230 600 224C667 218 733 468 800 472C867 481 933 357 1000 351C1067 346 1133 420 1200 423;M0 417C67 404 133 278 200 278C267 278 333 513 400 513C467 513 533 216 600 216C667 216 733 480 800 480C867 480 933 345 1000 345C1067 345 1133 429 1200 429"/>
  </path>
  <path d="M0 467C67 467 133 391 200 391C267 391 333 558 400 558C467 558 533 263 600 263C667 263 733 533 800 533C867 533 933 381 1000 381C1067 381 1133 466 1200 466" stroke="#8D8D8D" stroke-width="4" stroke-dasharray="18 14">
    <animate attributeName="d" dur="14s" repeatCount="indefinite" calcMode="spline" keyTimes="0;0.5;1" keySplines="0.42 0 0.58 1;0.42 0 0.58 1" values="M0 467C67 467 133 391 200 391C267 391 333 558 400 558C467 558 533 263 600 263C667 263 733 533 800 533C867 533 933 381 1000 381C1067 381 1133 466 1200 466;M0 471C67 470 133 402 200 398C267 392 333 545 400 548C467 557 533 277 600 271C667 264 733 520 800 523C867 534 933 392 1000 387C1067 382 1133 457 1200 460;M0 467C67 467 133 391 200 391C267 391 333 558 400 558C467 558 533 263 600 263C667 263 733 533 800 533C867 533 933 381 1000 381C1067 381 1133 466 1200 466"/>
    <animate attributeName="stroke-dashoffset" from="0" to="-32" dur="3.6s" repeatCount="indefinite"/>
  </path>
  <rect x="92" y="96" width="334" height="164" rx="18" fill="#0F0F0F" stroke="#6D6D6D"/>
  <text x="122" y="150" fill="#F5F5F5" font-family="monospace" font-size="32">Uniform pacing</text>
  <text x="122" y="196" fill="#A3A3A3" font-family="monospace" font-size="24">Less UI churn,</text>
  <text x="122" y="226" fill="#A3A3A3" font-family="monospace" font-size="24">steadier frames</text>
  <text x="92" y="634" fill="#D4D4D4" font-family="monospace" font-size="30" textLength="1016" lengthAdjust="spacingAndGlyphs">Runtime polish comes from orchestration, not only effects.</text>
</svg>
